<?xml version="1.0" encoding="UTF-8" standalone="no"?>
<!-- Generator: Adobe Illustrator 16.0.0, SVG Export Plug-In . SVG Version: 6.00 Build 0)  -->

<svg
   version="1.1"
   id="Capa_1"
   x="0px"
   y="0px"
   width="50px"
   height="50px"
   viewBox="0 0 50 50"
   style="enable-background:new 0 0 50 50;"
   xml:space="preserve"
   sodipodi:docname="red-cross.svg"
   inkscape:version="1.1.1 (3bf5ae0d25, 2021-09-20, custom)"
   xmlns:inkscape="http://www.inkscape.org/namespaces/inkscape"
   xmlns:sodipodi="http://sodipodi.sourceforge.net/DTD/sodipodi-0.dtd"
   xmlns="http://www.w3.org/2000/svg"
   xmlns:svg="http://www.w3.org/2000/svg"><defs
   id="defs45">
		
		
		
	</defs><sodipodi:namedview
   id="namedview43"
   pagecolor="#ffffff"
   bordercolor="#666666"
   borderopacity="1.0"
   inkscape:pageshadow="2"
   inkscape:pageopacity="0.0"
   inkscape:pagecheckerboard="0"
   showgrid="false"
   inkscape:zoom="12.96"
   inkscape:cx="41.087963"
   inkscape:cy="25"
   inkscape:window-width="1920"
   inkscape:window-height="1021"
   inkscape:window-x="0"
   inkscape:window-y="0"
   inkscape:window-maximized="1"
   inkscape:current-layer="g10" />
<g
   id="g10">
	<path
   d="M 45,0 H 5 C 2.25,0 0,2.25 0,5 v 40 c 0,2.75 2.25,5 5,5 h 40 c 2.75,0 5,-2.25 5,-5 V 5 C 50,2.25 47.75,0 45,0 Z m 1,45 c 0,0.542 -0.458,1 -1,1 H 5 C 4.458,46 4,45.542 4,45 V 5 C 4,4.458 4.458,4 5,4 h 40 c 0.542,0 1,0.458 1,1 z"
   id="path2"
   style="fill:#ff0000" />
<rect
   style="opacity:1;fill:#ff0000;stroke-width:1.84335"
   id="rect268"
   width="50.077236"
   height="4.0986471"
   x="10.285727"
   y="-3.5294199"
   transform="rotate(47.3993)" /><rect
   style="fill:#ff0000;stroke-width:1.84335"
   id="rect268-3"
   width="50.077236"
   height="4.0986471"
   x="-23.558521"
   y="33.275021"
   transform="matrix(-0.67688496,0.73608882,0.73608882,0.67688496,0,0)" /></g>
<g
   id="g12">
</g>
<g
   id="g14">
</g>
<g
   id="g16">
</g>
<g
   id="g18">
</g>
<g
   id="g20">
</g>
<g
   id="g22">
</g>
<g
   id="g24">
</g>
<g
   id="g26">
</g>
<g
   id="g28">
</g>
<g
   id="g30">
</g>
<g
   id="g32">
</g>
<g
   id="g34">
</g>
<g
   id="g36">
</g>
<g
   id="g38">
</g>
<g
   id="g40">
</g>
</svg>
