<?xml version="1.0" encoding="utf-8"?>
<!-- Generator: Adobe Illustrator 21.1.0, SVG Export Plug-In . SVG Version: 6.00 Build 0)  -->
<svg version="1.1" id="PILLS" xmlns="http://www.w3.org/2000/svg" xmlns:xlink="http://www.w3.org/1999/xlink" x="0px" y="0px"
	 viewBox="0 0 200 136" style="enable-background:new 0 0 200 136;" xml:space="preserve">
<style type="text/css">
	.st0{fill:#29433A;}
	.st1{clip-path:url(#XMLID_3_);}
	.st2{fill:#125740;}
	.st3{fill:#FFFFFF;}
</style>
<path class="st0" d="M200,128c0,4.4-3.6,8-8,8H8c-4.4,0-8-3.6-8-8V8c0-4.4,3.6-8,8-8h184c4.4,0,8,3.6,8,8V128z"/>
<g>
	<defs>
		<path id="XMLID_1_" d="M200,128c0,4.4-3.6,8-8,8H8c-4.4,0-8-3.6-8-8V8c0-4.4,3.6-8,8-8h184c4.4,0,8,3.6,8,8V128z"/>
	</defs>
	<use xlink:href="#XMLID_1_"  style="overflow:visible;fill:#105740;"/>
	<clipPath id="XMLID_3_">
		<use xlink:href="#XMLID_1_"  style="overflow:visible;"/>
	</clipPath>
	<g class="st1">
		<path class="st2" d="M104.6,90.1c-0.4,0-0.8,0-1.2,0c-0.1,0.1-0.2,0.2-0.3,0.3c0.2,2.2,0.2,4.3,0,6.5c0.1,0.1,0.2,0.2,0.3,0.3
			c0.4,0,0.8,0,1.2,0c0.1-0.1,0.2-0.2,0.4-0.3c0.3-2.1,0.3-4.3,0-6.4C104.9,90.3,104.7,90.2,104.6,90.1L104.6,90.1z"/>
		<path class="st2" d="M97,90c-0.4,0-0.8,0-1.2,0c-0.1,0.1-0.2,0.2-0.4,0.3c-0.3,2.1-0.3,4.3,0,6.4c0.1,0.1,0.3,0.2,0.4,0.3
			c0.4,0,0.8,0,1.2,0c0.1-0.1,0.2-0.2,0.3-0.3c-0.2-2.2-0.2-4.3,0-6.5C97.2,90.3,97.1,90.1,97,90L97,90z"/>
		<path class="st2" d="M100.8,90c-0.4,0-0.8,0-1.2,0c-0.1,0.1-0.2,0.2-0.3,0.3c-0.1,2.2-0.1,4.3,0,6.5c0.1,0.1,0.2,0.2,0.3,0.3
			c0.4,0,0.8,0,1.2,0c0.1-0.1,0.2-0.2,0.3-0.3c0.1-2.2,0.1-4.3,0-6.5C101,90.2,100.9,90.1,100.8,90L100.8,90z"/>
		<path class="st2" d="M118,45.4c0.4,0,0.7-0.1,1-0.3c0.2-0.2,0.5-0.5,0.7-1l1.4-2.6c0.2-0.4,0.3-0.7,0.3-1c0-0.5-0.3-0.7-0.8-0.7
			c-0.4,0-0.7,0.1-1,0.3c-0.2,0.2-0.5,0.5-0.7,1l-1.4,2.6c-0.2,0.4-0.3,0.7-0.3,1C117.2,45.2,117.5,45.4,118,45.4L118,45.4z"/>
		<path class="st2" d="M176.5,65.7h-13.6c0.4-0.7,0.6-1.3,0.6-2.1c0-1-1.1-1.7-3.1-1.7c-2.5,0-3.7,1-3.7,2.2c0,1,1.1,1.4,7,2.7
			c5.9,1.4,8,2.7,8,5.9c0,2.6-1.2,5.3-3.4,7.5c-2.8,2.8-7.1,4.6-17.6,4.6c-12.4,0-16-2-16-6.3c0-1.3,0.3-2.6,1-4h13.9
			c-0.4,0.8-0.6,1.5-0.6,2.3c0,1.1,1,1.8,3.2,1.8c2.4,0,3.8-0.9,3.8-2.3c0-1.4-1.2-1.7-7.5-3.2c-5.9-1.5-7.5-2.6-7.5-5.8
			c0-2.1,1.2-4.7,3.3-6.9c3.1-3.1,7.3-4.7,17.6-4.7c11.3,0,15.5,1.8,15.5,6.1C177.3,63.3,177,64.4,176.5,65.7L176.5,65.7z
			 M120.3,83.4c-1.4-1-3-2-4.7-2.9c-3.4-1.8-6.8-2.7-9.6-3.2l7.4-13.8H104l3.8-7.1h35.5l-3.8,7.1h-8.5L120.3,83.4L120.3,83.4z
			 M107,96.7c0.1,0.1,0.2,0.2,0.3,0.3c0.4,0,0.8,0,1.2,0c0.1-0.1,0.3-0.2,0.4-0.3c0.1-0.7,0.2-1.3,0.3-1.9c1.2,0,2.5,0,3.7-0.1
			c4-0.1,8-0.3,12-0.5l0.7,0.8v0v0c-0.9,3.1-4.7,6.8-10.8,9.9c-5.5,2.9-11.6,3.6-14.7,3.6c0,0-0.1,0-0.1,0c0,0,0,0,0,0c0,0,0,0,0,0
			l0,0c-3.1,0-9.3-0.8-14.7-3.6c-6-3.2-9.8-6.8-10.7-9.9l0.7-0.8c4,0.3,8,0.4,12,0.5c1.4,0,2.8,0.1,4.2,0.1c0.1,0.6,0.1,1.3,0.3,1.9
			c0.1,0.1,0.3,0.2,0.4,0.3c0.4,0,0.8,0,1.2,0c0.1-0.1,0.2-0.2,0.3-0.3c-0.4-2.1-0.4-4.2,0-6.3c-0.1-0.1-0.2-0.2-0.3-0.3
			c-0.4,0-0.8,0-1.2,0c-0.1,0.1-0.3,0.2-0.4,0.3c-0.1,0.6-0.2,1.3-0.3,1.9c-1.4,0-2.8,0-4.2,0.1c-4,0.1-8,0.3-12,0.5l-0.7-0.9
			c0-0.1,0-0.2,0-0.2c0.9-3.1,4.7-6.8,10.8-9.9c5.5-2.9,11.6-3.6,14.7-3.6c0,0,0,0,0,0c0,0,0,0,0,0c0,0,0.1,0,0.1,0
			c3.1,0,9.2,0.7,14.7,3.6c6,3.2,9.9,6.8,10.8,9.9c0,0.1,0,0.2,0,0.3l-0.7,0.9c-4-0.3-8-0.4-12-0.5c-1.2,0-2.5-0.1-3.7-0.1
			c-0.1-0.6-0.1-1.3-0.3-1.9c-0.1-0.1-0.3-0.2-0.4-0.3c-0.4,0-0.8,0-1.2,0c-0.1,0.1-0.2,0.2-0.3,0.3C107.3,92.5,107.3,94.6,107,96.7
			L107,96.7z M74.4,94.9C74.4,94.9,74.4,94.9,74.4,94.9L74.4,94.9C74.4,94.9,74.4,94.9,74.4,94.9L74.4,94.9z M71.9,56.4h33l-3.7,7
			H84.3l-1.9,3.4h17.1l-3.6,6.8h-17l-1.9,3.5h17.5l-0.1,0.2c-2.8,0.5-6.4,1.5-9.9,3.3c-2.1,1.1-4,2.3-5.7,3.6H57.1L71.9,56.4
			L71.9,56.4z M38.7,84.8c-11.3,0-15.9-2.7-15.9-7.7c0-2.6,0.6-4.4,2.2-7.2l1.8-3.4h14.6l-3.6,6.9c-0.4,0.9-0.8,1.8-0.8,2.5
			c0,1,0.5,1.7,1.8,1.7c1.9,0,2.8-1.3,4.1-3.6L52,56.4h17.1l-7.7,14.8c-2.2,4.1-3.6,6.5-5.8,8.7C52.2,83.2,46.8,84.8,38.7,84.8
			L38.7,84.8z M43.9,37.5h5.6l1,4.4l2.3-4.4h5l-5.4,10.2h-5.3l-1-4.7l-2.5,4.7h-5L43.9,37.5L43.9,37.5z M72.2,37.5l-1.4,2.6h-6.2
			l-0.7,1.2h5.8l-1.3,2.5h-5.8l-0.7,1.3h6.4l-1.4,2.6H54.6L60,37.5H72.2L72.2,37.5z M79.2,37.5L78,42.3l3.5-4.8h5.8l-1.4,4.8
			l3.7-4.8h5.5L86,47.7h-6.1l0.9-4l-3.3,4h-6.1l1.9-10.2H79.2L79.2,37.5z M99.3,37.5h6.2l-0.1,3.2l3.1-3.2h5.7l-8.2,7l-1.7,3.2H98
			l1.8-3.3L99.3,37.5L99.3,37.5z M126,38c1,0.5,1.5,1.2,1.5,2.2c0,0.7-0.2,1.6-0.7,2.6c-0.7,1.5-1.4,2.6-2.2,3.3
			c-1.3,1.3-3.6,2-6.9,2c-2.3,0-4-0.3-5.1-0.8c-1-0.5-1.5-1.2-1.5-2.2c0-0.7,0.2-1.6,0.7-2.6c0.7-1.5,1.4-2.6,2.2-3.3
			c1.3-1.3,3.6-2,6.9-2C123.2,37.3,124.9,37.5,126,38L126,38z M140.4,37.5c1.3,0,2.1,0.2,2.6,0.7c0.4,0.4,0.5,0.9,0.5,1.5
			c0,1-0.4,1.8-1.1,2.6c-0.4,0.4-0.8,0.7-1.2,0.8c-0.4,0.2-0.9,0.3-1.5,0.4c1,0.3,1.5,0.8,1.5,1.4c0,0.4-0.1,0.8-0.4,1.2l-0.8,1.5
			h-6.2l1.1-2c0.1-0.3,0.2-0.5,0.2-0.7c0-0.4-0.3-0.6-0.8-0.6h-0.9l-1.8,3.3h-6.1l5.4-10.2H140.4L140.4,37.5z M153.7,37.5l-2.5,4.6
			l5.1-4.6h5.7l-5.6,5l0.6,5.2h-6.1l-0.3-4.5l-2.4,4.5h-6.3l5.4-10.2H153.7L153.7,37.5z M201,62.6c-3.6-12.1-19.4-26.5-42.3-38.5
			c-20.2-10.6-44-14.4-58.4-14.4c-0.1,0-0.2,0-0.3,0h-0.2c-0.1,0-0.2,0-0.2,0c-14.4,0-38.2,3.8-58.4,14.4C18.4,36.2,2.6,50.5-1,62.6
			c-0.3,1.7-0.5,3.5-0.4,5.3l0,0l0,0c0,1.8,0.1,3.6,0.4,5.3c3.6,12.1,19.4,26.5,42.3,38.5c20.3,10.7,44.3,14.4,58.7,14.4h0.2
			c0.1,0,0.2,0,0.2,0c14.4,0,38.2-3.8,58.4-14.4c22.8-12,38.6-26.4,42.3-38.5c0.3-1.7,0.5-3.5,0.4-5.3V68
			C201.5,66.2,201.4,64.4,201,62.6L201,62.6z"/>
		<g>
			<path class="st2" d="M136.8,41.6l0.2-0.5c0.1-0.2,0.2-0.4,0.2-0.6c0-0.3-0.2-0.5-0.6-0.5h-0.9l-1.3,2.4h1.2
				C136,42.5,136.5,42.2,136.8,41.6L136.8,41.6z"/>
			<path class="st3" d="M84.4,80.5c3.5-1.8,7-2.8,9.9-3.3l0.1-0.2H76.9l1.9-3.5h17l3.6-6.8H82.4l1.9-3.4h16.9l3.7-7h-33L57.1,84.1
				h21.6C80.4,82.9,82.3,81.7,84.4,80.5L84.4,80.5z M74.4,94.9C74.4,94.9,74.4,94.9,74.4,94.9L74.4,94.9
				C74.4,94.9,74.4,94.9,74.4,94.9L74.4,94.9z M69.1,56.4H52l-9.3,17.7c-1.3,2.3-2.2,3.6-4.1,3.6c-1.3,0-1.8-0.7-1.8-1.7
				c0-0.7,0.4-1.7,0.8-2.5l3.6-6.9H26.7l-1.8,3.4c-1.5,2.8-2.2,4.6-2.2,7.2c0,5,4.7,7.7,15.9,7.7c8.1,0,13.6-1.7,16.8-5
				c2.2-2.2,3.6-4.5,5.8-8.7L69.1,56.4L69.1,56.4z M161.8,55.7c-10.3,0-14.5,1.6-17.6,4.7c-2.2,2.2-3.3,4.8-3.3,6.9
				c0,3.2,1.7,4.3,7.5,5.8c6.3,1.6,7.5,1.9,7.5,3.2c0,1.5-1.4,2.3-3.8,2.3c-2.2,0-3.2-0.7-3.2-1.8c0-0.8,0.2-1.5,0.6-2.3h-13.9
				c-0.7,1.4-1,2.7-1,4c0,4.3,3.6,6.3,16,6.3c10.5,0,14.7-1.8,17.6-4.6c2.3-2.3,3.4-4.9,3.4-7.5c0-3.2-2.1-4.5-8-5.9
				c-5.9-1.4-7-1.8-7-2.7c0-1.1,1.3-2.2,3.7-2.2c2,0,3.1,0.7,3.1,1.7c0,0.8-0.2,1.4-0.6,2.1h13.6c0.6-1.3,0.8-2.4,0.8-3.9
				C177.3,57.5,173.1,55.7,161.8,55.7L161.8,55.7z M105,96.8c-0.1,0.1-0.3,0.2-0.4,0.3c-0.4,0-0.8,0-1.2,0c-0.1-0.1-0.2-0.2-0.3-0.3
				c0.2-2.2,0.2-4.3,0-6.5c0.1-0.1,0.2-0.2,0.3-0.3c0.4,0,0.8,0,1.2,0c0.1,0.1,0.2,0.2,0.4,0.3C105.2,92.5,105.2,94.7,105,96.8
				L105,96.8z M101.2,96.8c-0.1,0.1-0.2,0.2-0.3,0.3c-0.4,0-0.8,0-1.2,0c-0.1-0.1-0.2-0.2-0.3-0.3c-0.1-2.2-0.1-4.3,0-6.5
				c0.1-0.1,0.2-0.2,0.3-0.3c0.4,0,0.8,0,1.2,0c0.1,0.1,0.2,0.2,0.3,0.3C101.2,92.5,101.2,94.7,101.2,96.8L101.2,96.8z M97.3,96.8
				c-0.1,0.1-0.2,0.2-0.3,0.3c-0.4,0-0.8,0-1.2,0c-0.1-0.1-0.2-0.2-0.4-0.3c-0.3-2.1-0.3-4.3,0-6.4c0.1-0.1,0.3-0.2,0.4-0.3
				c0.4,0,0.8,0,1.2,0c0.1,0.1,0.2,0.2,0.3,0.3C97.2,92.5,97.2,94.7,97.3,96.8L97.3,96.8z M108.4,90.2c0.1,0.1,0.3,0.2,0.4,0.3
				c0.1,0.6,0.2,1.3,0.3,1.9c1.2,0,2.5,0,3.7,0.1c4,0.1,8,0.3,12,0.5l0.7-0.9c0-0.1,0-0.2,0-0.3c-0.9-3.1-4.7-6.8-10.8-9.9
				c-5.5-2.9-11.6-3.6-14.7-3.6c0,0-0.1,0-0.1,0c0,0,0,0,0,0c0,0,0,0,0,0c-3.1,0-9.3,0.8-14.7,3.6c-6,3.2-9.9,6.9-10.8,9.9
				c0,0.1,0,0.2,0,0.2l0.7,0.9c4-0.3,8-0.4,12-0.5c1.4,0,2.8-0.1,4.2-0.1c0.1-0.6,0.1-1.3,0.3-1.9c0.1-0.1,0.3-0.2,0.4-0.3
				c0.4,0,0.8,0,1.2,0c0.1,0.1,0.2,0.2,0.3,0.3c-0.4,2.1-0.4,4.2,0,6.3c-0.1,0.1-0.2,0.2-0.3,0.3c-0.4,0-0.8,0-1.2,0
				c-0.1-0.1-0.3-0.2-0.4-0.3c-0.1-0.6-0.2-1.3-0.3-1.9c-1.4,0-2.8,0-4.2-0.1c-4-0.1-8-0.3-12-0.5l-0.7,0.8
				c0.9,3.1,4.7,6.7,10.7,9.9c5.5,2.9,11.6,3.6,14.7,3.6l0,0c0,0,0,0,0,0c0,0,0,0,0,0c0,0,0.1,0,0.1,0c3.1,0,9.2-0.7,14.7-3.6
				c6-3.2,9.9-6.8,10.8-9.9v0v0l-0.7-0.8c-4,0.3-8,0.4-12,0.5c-1.2,0-2.5,0.1-3.7,0.1c-0.1,0.7-0.1,1.3-0.3,1.9
				c-0.1,0.1-0.3,0.2-0.4,0.3c-0.4,0-0.8,0-1.2,0c-0.1-0.1-0.2-0.2-0.3-0.3c0.4-2.1,0.4-4.2,0-6.3c0.1-0.1,0.2-0.2,0.3-0.3
				C107.6,90.1,108,90.1,108.4,90.2L108.4,90.2z M201.5,68c0,1.8-0.1,3.6-0.4,5.3c-3.6,12.1-19.4,26.5-42.3,38.5
				c-20.2,10.6-44,14.4-58.4,14.4c-0.1,0-0.2,0-0.2,0h-0.2c-14.4,0-38.4-3.7-58.7-14.4C18.4,99.8,2.6,85.5-1,73.4
				c-0.3-1.7-0.5-3.5-0.4-5.3l0,0l0,0c0-1.8,0.1-3.6,0.4-5.3c3.6-12.1,19.4-26.5,42.3-38.5c20.2-10.6,44-14.4,58.4-14.4
				c0.1,0,0.2,0,0.2,0h0.2c0.1,0,0.2,0,0.3,0c14.4,0,38.2,3.8,58.4,14.4c22.8,12,38.6,26.4,42.3,38.5
				C201.4,64.4,201.5,66.2,201.5,68L201.5,68L201.5,68z M206.7,61.4l-0.1-0.3C202.6,47.3,186.1,32,161.5,19
				C140.3,7.9,115.4,4,100.4,4c-0.1,0-0.2,0-0.3,0h-0.2c-0.1,0-0.2,0-0.3,0c-15.1,0-40,3.9-61.1,15C13.9,32-2.6,47.3-6.6,61.1
				l-0.1,0.3c-0.4,2.1-0.6,4.4-0.6,6.6c0,2.2,0.2,4.4,0.6,6.6l0.1,0.3C-2.6,88.7,13.9,104,38.5,117c21.1,11.1,46.1,15,61.1,15
				c0.1,0,0.2,0,0.3,0h0.2c0.1,0,0.2,0,0.2,0c15.1,0,40-3.9,61.1-15c24.6-13,41.1-28.3,45.2-42.1l0.1-0.3c0.4-2.1,0.6-4.4,0.6-6.6
				C207.3,65.8,207.1,63.6,206.7,61.4L206.7,61.4z M45.9,43l1,4.7h5.3l5.4-10.2h-5l-2.3,4.4l-1-4.4h-5.6l-5.4,10.2h5L45.9,43
				L45.9,43z M143.2,56.4h-35.5l-3.8,7.1h9.4L106,77.3c2.8,0.5,6.2,1.5,9.6,3.2c1.7,0.9,3.3,1.9,4.7,2.9l10.6-19.9h8.5L143.2,56.4
				L143.2,56.4z M148.2,47.7l2.4-4.5l0.3,4.5h6.1l-0.6-5.2l5.6-5h-5.7l-5.1,4.6l2.5-4.6h-6.3l-5.4,10.2H148.2L148.2,47.7z
				 M66.9,47.7l1.4-2.6h-6.4l0.7-1.3h5.8l1.3-2.5h-5.8l0.7-1.2h6.2l1.4-2.6H60l-5.4,10.2H66.9L66.9,47.7z M104.5,47.7l1.7-3.2l8.2-7
				h-5.7l-3.1,3.2l0.1-3.2h-6.2l0.4,6.9L98,47.7H104.5L104.5,47.7z M117.5,43.8l1.4-2.6c0.2-0.5,0.5-0.8,0.7-1
				c0.2-0.2,0.6-0.3,1-0.3c0.6,0,0.8,0.2,0.8,0.7c0,0.3-0.1,0.6-0.3,1l-1.4,2.6c-0.2,0.5-0.5,0.8-0.7,1c-0.3,0.2-0.6,0.3-1,0.3
				c-0.6,0-0.8-0.2-0.8-0.7C117.2,44.5,117.3,44.1,117.5,43.8L117.5,43.8z M111.8,42.5c-0.5,1-0.7,1.8-0.7,2.6c0,1,0.5,1.7,1.5,2.2
				c1.1,0.5,2.7,0.8,5.1,0.8c3.3,0,5.5-0.7,6.9-2c0.7-0.7,1.5-1.8,2.2-3.3c0.5-1,0.7-1.8,0.7-2.6c0-1-0.5-1.7-1.5-2.2
				c-1.1-0.5-2.8-0.8-5.1-0.8c-3.3,0-5.5,0.7-6.9,2C113.3,40,112.6,41.1,111.8,42.5L111.8,42.5z M77.5,47.7l3.3-4l-0.9,4H86
				l9.1-10.2h-5.5l-3.7,4.8l1.4-4.8h-5.8L78,42.3l1.2-4.8h-5.9l-1.9,10.2H77.5L77.5,47.7z M135.6,40.1h0.9c0.4,0,0.6,0.2,0.6,0.5
				c0,0.2-0.1,0.4-0.2,0.6l-0.2,0.5c-0.3,0.6-0.7,0.9-1.3,0.9h-1.2L135.6,40.1L135.6,40.1z M131.7,47.7l1.8-3.3h0.9
				c0.6,0,0.8,0.2,0.8,0.6c0,0.2-0.1,0.4-0.2,0.7l-1.1,2h6.2l0.8-1.5c0.3-0.5,0.4-0.9,0.4-1.2c0-0.6-0.5-1.1-1.5-1.4
				c0.7-0.1,1.2-0.2,1.5-0.4c0.4-0.2,0.8-0.5,1.2-0.8c0.7-0.7,1.1-1.6,1.1-2.6c0-0.7-0.2-1.2-0.5-1.5c-0.5-0.5-1.4-0.7-2.6-0.7H131
				l-5.4,10.2H131.7L131.7,47.7z"/>
		</g>
	</g>
</g>
</svg>
