<?xml version="1.0" encoding="utf-8"?>
<!-- Generator: Adobe Illustrator 20.0.0, SVG Export Plug-In . SVG Version: 6.00 Build 0)  -->
<svg version="1.1" id="PILLS" xmlns="http://www.w3.org/2000/svg" xmlns:xlink="http://www.w3.org/1999/xlink" x="0px" y="0px"
	 viewBox="0 0 200 136" style="enable-background:new 0 0 200 136;" xml:space="preserve">
<style type="text/css">
	.st0{fill:#B0B7BC;}
	.st1{fill:#0076B6;}
	.st2{fill:#FFFFFF;}
</style>
<g id="DET">
	<path class="st0" d="M192,0H8C3.6,0,0,3.6,0,8v120c0,4.4,3.6,8,8,8h184c4.4,0,8-3.6,8-8V8C200,3.6,196.4,0,192,0z"/>
	<g>
		<path class="st1" d="M198.2,91.7c-2.7-0.6-5.5-0.2-5.5-0.2s-0.7-1.3-2.5-2.6c-1.8-1.3-5-1.9-9-3.1c-4-1.3-7.7-4.4-7.7-4.4
			c0.7-0.9,3.4-4.9,3.4-4.9c1,0.5,4.1,1.4,6.4,1.4c2.3,0,5.2-0.6,5.2-0.6s5.3,2,9.3,0.2c0.8-0.4,1.5-0.8,2.1-1.3V48.6
			c-0.3-0.1-0.6-0.2-0.9-0.3c-2.9-0.8-5.6-0.4-5.6-0.4c-1.3-1.4-3.6-2.5-7-2.5c-3.4-0.1-6.6,2.7-6.6,2.7c2.6-2.7,4.2-8.3,4.2-8.3
			c3.5-5,7.5-6.8,7.5-6.8s-6.5-6.8-11.7-10c-5.3-3.2-10.4-5.2-10.4-5.2s-1.6-4.6-4.2-6.4c-2.7-1.9-6.2-3.2-6.2-3.2
			c-0.5-1.8-2.8-4.8-6.1-6.4c-1.3-0.6-2.8-1.1-4.4-1.7h-39.4c0.5,0.4,0.9,0.7,0.9,0.7c-4.2-0.3-9.9,0.6-15.2,3
			c-5.2,2.5-9.3,7.5-11.1,9.6C82,15.3,80.4,16,77,17c-3.4,1-7.8,1.4-7.8,1.4c0.2,2.7,2.9,7,2.9,7c-3.5,5.5-3.3,11.3-3.3,11.3
			s-3.1,2.8-6.2,7.2c-3.1,4.4-3,9.2-3,9.2c-1.4-0.2-3-0.9-3-0.9c-0.2,6.5,3,12.4,3,12.4s-2.4,2.5-4,5c-1.5,2.5-4,6.9-4,6.9
			c-1.1,1.1-7.6,6.4-7.6,6.4s-4.2,1.4-5,1.6c-0.9,0.3-4,1.2-6.4,2.8c-2.5,1.6-8.9,8.1-8.9,8.1c-10.9-2.4-12.7-9-14-14.4
			C8.2,75.4,6.2,71,2,66c-0.6-0.7-1.3-1.4-2-2v43c5.5,5.6,15.2,8.2,15.2,8.2s-0.1,3.8-0.4,6.1c-0.3,2.3-0.3,8.5-1.2,11.5
			c-0.3,1.2-0.8,2.2-1.4,3.1h89.3c-0.4-0.9-0.9-1.8-1.5-2.7c-2.4-3.5-6.8-5.1-6.8-5.1c3.1-1,6.7-3.6,8.6-7.1c1.9-3.5,2.9-10,2.9-10
			c4-0.2,8.5-2.2,11-3.4c2.5-1.1,10.2-5.4,10.2-5.4c2.6,2,4,6.1,4,6.1c9-0.5,12-1.9,12-1.9c5.1,2.9,16.5,5.2,21.6,5.5
			c5.1,0.2,7.9,1.6,7.9,1.6s2.9,4.3,7.1,5.7c4.2,1.3,7.4,1,7.4,1s2.8,2.2,6.8,1.6c4-0.6,5.5-2.7,5.5-2.7s0.8,0,1.9-0.4V92.4
			C199.4,92.1,198.8,91.9,198.2,91.7z"/>
		<path class="st2" d="M195.7,94.9c-1.9-0.2-4.9,0.6-4.9,0.6c-1-2.9-3.6-4.4-4.8-4.8c-1.2-0.3-3.5-0.6-8.1-2.5
			c-4.6-1.9-9.3-6.4-9.3-6.4c1.1-1.2,5.9-7.8,6.5-8.8c0.6-0.9,1.3-1.3,1.3-1.3s3,2.3,5.8,2.5c2.8,0.2,6.6-0.7,6.6-0.7s4.1,2,7.3,0.9
			c2-0.7,3.3-2.5,4-3.8V52.4c-1.8-0.8-3.6-1.1-4.8-1c-1.6,0.1-3.4,0-3.4,0c-0.4-0.6-1.9-2.1-3.9-2.5c-2.1-0.3-4.4,0.9-5.2,1.6
			c-0.8,0.7-2.3,1.6-2.3,1.6s-1.3-0.7-3.4-1.3c-2.1-0.6-4.4-0.5-4.4-0.5v-1c0,0,3-1.2,5.1-4.2c2-3,3.3-7.2,3.3-7.2
			c1-1.5,5.2-4.9,5.2-4.9s-4.2-4-7.3-6.3c-3.1-2.3-9.8-5.3-10.5-5.6c-0.7-0.2-1.4-0.7-1.8-1.4c-0.4-0.7-0.8-1.7-1.1-2.6
			c-0.3-0.9-2-3-3.6-3.8c-1.6-0.9-5.7-2.6-5.7-2.6c-0.9-4.5-5.1-6.1-7.5-6.9c-2-0.6-7.1-2.3-11-3.8h-22.3c1,0.9,1.6,1.6,1.6,1.6
			c-1.4,0.5-4.8,2.7-4.8,2.7S105.2,3.6,98.4,6c-6.8,2.4-12.3,10.1-12.3,10.1s-2.3,2.1-5.2,3c-2.9,1-7.1,1.4-7.1,1.4
			c0.3,2.1,2.6,4.9,2.6,4.9s-2.1,2.7-3.1,6c-1,3.3-0.8,6.9-0.8,6.9c-4.8,4.2-8.5,9.6-9.2,12.9C62.6,54.6,64,57,64,57
			c-1.1,0.1-2.7-0.2-2.7-0.2c0,4.2,2.8,7.5,2.8,7.5s-3.1,4-4.3,5.7c-1.2,1.7-5.3,8.9-5.3,8.9c-1.4,1.1-8.5,7.2-8.5,7.2
			s-4,1.3-5.2,1.7c-1.2,0.3-3.9,1-6.3,2.6c-2.4,1.6-9.5,9-9.5,9c-2.5-0.2-7.3-1.4-11.4-4.2c-4.1-2.9-6.7-9.4-7.5-12.6
			c-0.8-3.2-2-7.9-6.1-13v32.2c0.5,0.7,1,1.3,1.6,2c5.4,6.2,17.4,8.9,17.4,8.9c-0.6,2.5-1,11.8-1.1,14.7c-0.1,2.7-0.9,6.2-1.8,8.9
			H50c1.4-2.6,3.1-6.1,3.1-6.1s2,1,2.7,1.4c0.6,0.4,0.6,1.2,0.3,1.6c-0.2,0.3-1.4,1.8-2.4,3.1h43.7c-0.8-1.1-1.8-2.2-3.1-3.2
			c-3.1-2.3-6.9-1.6-8.2-1c-1.4,0.5-3.2,1.6-4.2,1.6c-1,0-4.5-0.8-4.5-0.8c1.2-1.1,3.9-3.3,6.1-4.5c2.2-1.1,4.9-1.8,7-2.6
			c2.1-0.8,5.8-2.8,7.1-4.5c1.3-1.6,2.8-6.6,3.3-9.1c0.5-2.5,0.1-4.1,0.1-4.1c0.9-0.1,7.4-0.7,11.1-2.4c3.7-1.7,14-7.4,14-7.4
			c4.8,2.9,6.2,7,6.2,7c4.4-0.1,9.9-2.6,9.9-2.6c3.6,2.6,14.7,5.7,20.4,5.8c5.7,0,11.2,2.3,11.2,2.3s1.5,3.1,4.8,4.7
			c3.2,1.6,8.2,1.2,8.2,1.2c1.2,1,3.8,2.2,6.3,1.5c2.4-0.7,3.3-2.5,3.3-2.5s1.9,0.2,3.6-0.9V96.4C198.3,95.2,197,95,195.7,94.9z"/>
		<path class="st1" d="M117.9-0.2c0.2,0.1,0.4,0.1,0.6,0.2h2.6C119.4-0.2,117.9-0.2,117.9-0.2z"/>
		<path class="st1" d="M200.7,64.6c0.1-0.9-0.4-2.1-0.7-2.8v3.7C200.4,65.3,200.6,65,200.7,64.6z"/>
		<path class="st1" d="M86.8,135.4c-0.4,0.2-0.8,0.4-1.3,0.6h7.2c-0.2-0.2-0.5-0.3-0.7-0.5C90,134.3,88.2,134.7,86.8,135.4z"/>
		<path class="st1" d="M195.4,55c-1.4,0.3-5.8-0.1-5.8-0.1s-0.6-1.8-1.8-2.2c-1.2-0.4-2.4,0.1-3.2,0.9c-0.8,0.8-3.1,2.3-4.2,2.3
			c-1.2,0-2.1-1.2-5.7-1.8c-3.6-0.6-5.8,1-5.8,1s0.3-2.7,0.1-4.5c0-0.2-0.8,0-0.8-0.1c-0.1-1.8,0-4.4,0-4.4c-0.4,1-3.8,5.7-6.8,4.1
			c-3-1.5-2.1-7.1-2.1-7.1c4.6-2.8,11.2-2.4,11.2-2.4c1.3,2.8-0.4,5.7-0.4,5.7c5.5-1.8,6.8-8.6,7.5-10c0.6-1.4,3.6-3.1,3.6-3.1
			s-3-2.7-6-4.6c-3.1-1.9-8.7-4.4-9.8-4.8c-1-0.4-2.3-2.6-2.6-3.3c-0.3-0.8-1-3.1-3-4.1c-1.9-1-7.5-3.3-7.5-3.3s0.8-1.2-0.5-3.2
			c-1.3-2.1-5.9-3-13.5-5.5c-3.5-1.2-6.5-2.9-8.8-4.3h-3.3c0.4,0.7,0.8,1.2,0.8,1.2c-1.3-0.6-3.9-1-5.9-1.2h-2.6
			c2.8,1.2,4.7,3.5,4.7,3.5c-2.6,0-6.7,2.5-6.7,2.5c3.3,0,4.8,1.8,4.8,1.8c-3.1,1.4-9.8-0.6-17.4,0.5c-7.6,1.2-12.5,7.1-12.5,7.1
			c3.2-1.2,5.3-0.1,5.3-0.1c-2.6,0.1-9.3,4.4-11.8,5.8c-2.6,1.4-6.3,1.3-6.3,1.3c0.9,1.9,3.3,2.5,3.3,2.5c-3.3,2.3-5.2,7.7-5.2,7.7
			c1.9-2.2,4.8-2.1,5.4-0.8c0.6,1.3-0.2,3.7-2.8,5.5c-2.1,1.5-7.2,5.8-9.9,9.6c-2.7,3.9-3.1,6.9-3.1,6.9c3.2-1.3,4.3-0.2,4.1,1.4
			C70,57.9,65.2,60,65.2,60c1.2,1.9,5.5,2.1,5.5,2.1s-5.2,5.7-7.2,8.7c-2.1,3.1-5.5,9.3-6.2,10.2c-0.6,0.9-8.2,7-9.1,7.9
			c-0.9,0.9-8.6,2.8-10.6,3.7c-1.9,0.9-8.5,7.1-10.7,9.9c-0.1,0.2-0.3,0.3-0.4,0.5c-3.1-0.2-10.4-1.2-15.3-5.2
			c-6.4-5.3-7.9-11.6-9-15.9c-0.6-2.2-1.3-4.2-2.3-6v18.9c1.3,2.9,3.2,5.5,6.2,8.1c4.2,3.7,13.1,6.1,17.3,6.9
			c-0.1,0.4-0.2,0.8-0.4,1.2c-1,3.3-1,9.4-1.4,16c-0.2,3.9-0.8,6.8-1.6,9.1h25.8c1.8-3.2,3.9-7.4,4.9-9.4c0.1-0.2,5-12.4,16.9-17.8
			l0.1-0.1c-8.7,7.7-9.4,10.6-9.4,10.6s5.8-5.5,15.8-9.7c6.7-2.8,11.8-4.1,15.1-4.4c-8.3,2.6-15.4,6.6-22.5,10.9
			c-7.3,4.4-11.9,10.1-12.2,10.4c6.4,2.6,5.9,5.3,5.4,6.9c-0.2,0.6-0.9,1.6-1.7,2.6h18c-2.4-0.5-4.8-1-4.8-1
			c2.1-5.7,8.6-9.8,11.6-10.8c3-1,8.6-2.8,10.8-4.6c2.2-1.8,3.5-8.2,3.6-9.5c0.1-1.3-1-5.4-1-5.4c2.3-0.4,8.4-0.3,13-2.1
			c2.7-1.1,7.9-3.8,11.6-5.9c-8.3-4.8-24.8-3.6-24.8-3.6c17.3-3.6,29.3,1,29.3,1c5.7,1.7,8.5,7.1,8.5,7.1c3.6-0.5,8.2-2.7,8.2-2.7
			c9.9-5.4,21-16.5,21-16.5c4-3.6,8-10.9,9.9-12.6c1.9-1.7,4.4-1.3,4.4-1.3s1.8,2.4,5,2.6c3.2,0.1,6-0.9,6-0.9s4.8,1.9,6.4,1
			c1.7-0.9,2.6-4.4,2.6-4.4s1.3-0.3,2.2-0.9v-3.7c-0.1-0.3-0.2-0.5-0.2-0.5s0.1-0.1,0.2-0.2v-4.5C198.9,55.9,196.6,54.7,195.4,55z
			 M156,23.3c1.1,0,3.5,1.6,5.2,1.7c0,0-1.5,2-1.7,2.5c-0.2,0.5,0.6,1.6,0.6,1.6s-3.3-2.5-4.4-3.2c-1-0.7-5-1.6-5-1.6
			S154.8,23.3,156,23.3z M117.3,35.5c11.4,2.1,16.5,10.7,16.5,10.7s-8.6-6.9-17.8-7.9c-9.2-1-17.8,2.5-17.8,2.5
			S105.8,33.4,117.3,35.5z M89.5,58.9c-8.1,1.9-14.4-1-14.4-1c11.1-0.4,16.3-3.5,27.3-9.3c11-5.8,22.6-1,22.6-1
			c-8.2-1.2-14.4,0.9-19,3.2C102,52.7,97.2,57.1,89.5,58.9z M137.8,69.7c0,0,3.3-4.5-1.3-9.4c-3.7-3.9-16.1-6.4-27.9-2
			c11.8-6.4,22.8-4.5,28.4-1.7c5.4,2.8,4.9,7.2,4.8,7.8c0,0,0,0.1,0,0.1c0,0,3.9-0.8,6.7-2.5c0.2-3.7,2.3-7.4,5.7-7.2
			c3.8,0.2,9.1,3,9.1,3C156,63.8,142.6,68.8,137.8,69.7z"/>
		<path class="st1" d="M197.4,99.1c-2.1-1.2-4.4-0.1-6.2,0c-1.8,0.1-3.3-1.3-3.7-2.2c-0.4-0.9-1.5-2.6-3.1-2.8
			c-1.5-0.3-5-1.2-9.8-3.3c-2.8-1.3-6.3-4.2-8.6-6.3c-2.1,2.1-5.2,5.2-8.8,8.2c-3.7,3-8.3,6-11.5,7.8c7.7,3.6,16.7,4.1,20.9,4.6
			c4.9,0.5,9.9,2.8,9.9,2.8s0.6,2.8,3.7,4.2c3.1,1.4,7.6,0.6,7.6,0.6s2.3,2.3,4.2,1.7c1.9-0.6,2.1-3.2,2.1-3.2s2.4,1.3,3.7,0.4
			c1.3-0.9,0.9-4.5,0.9-4.5c0.4,0,0.8-0.1,1.1-0.2v-5.6C199.3,100.4,198.4,99.6,197.4,99.1z"/>
	</g>
</g>
</svg>
